<svg xmlns="http://www.w3.org/2000/svg" viewBox="0 0 200 200"><defs><style>.f9ae93b6-dd1e-457f-99e9-5ecf0e623ca7{fill:#227b3a;}</style></defs><g id="e99500fd-e4dc-454a-bf8d-603c3dd6fc46" data-name="圖層 3"><polygon class="f9ae93b6-dd1e-457f-99e9-5ecf0e623ca7" points="90.11 90.11 90.1 90.09 91.52 91.52 91.52 91.52 91.52 91.52 90.11 90.11 90.11 90.11"/><path class="f9ae93b6-dd1e-457f-99e9-5ecf0e623ca7" d="M67.59,53.46h0c-1.48,0-5.13-.12-7.69-.4a72.82,72.82,0,0,1-7.28-1,72.82,72.82,0,0,0,7.28,1C62.46,53.34,66.11,53.45,67.59,53.46Z"/><path class="f9ae93b6-dd1e-457f-99e9-5ecf0e623ca7" d="M146.94,140.1a56.7,56.7,0,0,0,1.21,8.05h0a56.7,56.7,0,0,1-1.21-8.05c-.28-2.56-.39-6.21-.4-7.69h0C146.55,133.89,146.66,137.54,146.94,140.1Z"/><rect class="f9ae93b6-dd1e-457f-99e9-5ecf0e623ca7" x="109.27" y="108.15" height="2.23"/><path class="f9ae93b6-dd1e-457f-99e9-5ecf0e623ca7" d="M129.52,103.9a38.71,38.71,0,0,1,3.66,3.24c5.46,5.53,9,10.5,11,14.86h0c-2.05-4.36-5.55-9.33-11-14.86A38.71,38.71,0,0,0,129.52,103.9Z"/><path class="f9ae93b6-dd1e-457f-99e9-5ecf0e623ca7" d="M92.86,66.82a38.71,38.71,0,0,1,3.24,3.66l.07.08h0l-.07-.08a38.71,38.71,0,0,0-3.24-3.66c-5.53-5.46-10.5-9-14.86-11h0C82.36,57.86,87.33,61.36,92.86,66.82Z"/><path class="f9ae93b6-dd1e-457f-99e9-5ecf0e623ca7" d="M87.28,32.27c.56-.52,4.47-4.58,6.8-7.5a70.09,70.09,0,0,0,5.92-8,70.09,70.09,0,0,0,5.92,8c2.33,2.92,6.24,7,6.8,7.5,3,2.79,5.65,7.18,7.43,13.53a31.62,31.62,0,0,1,10.93-3.53c-2.3-11.74-7-19.31-12.67-23.65-.82-.63-6.47-5.5-9.85-9C104.37,5.24,101.84,2.66,100,0c-1.84,2.66-4.37,5.24-8.56,9.61-3.38,3.51-9,8.38-9.85,9C76,23,71.22,30.53,68.92,42.27A31.62,31.62,0,0,1,79.85,45.8C81.63,39.45,84.27,35.06,87.28,32.27Z"/><path class="f9ae93b6-dd1e-457f-99e9-5ecf0e623ca7" d="M67.77,53.46h0Z"/><path class="f9ae93b6-dd1e-457f-99e9-5ecf0e623ca7" d="M78,55.81a21.49,21.49,0,0,0-9.82-2.35h0A21.49,21.49,0,0,1,78,55.81Z"/><path class="f9ae93b6-dd1e-457f-99e9-5ecf0e623ca7" d="M32.27,112.72c-.52-.56-4.58-4.47-7.5-6.8a70.09,70.09,0,0,0-8-5.92,70.09,70.09,0,0,0,8-5.92c2.92-2.33,7-6.24,7.5-6.8,2.79-3,7.18-5.65,13.53-7.43a31.62,31.62,0,0,1-3.53-10.93C30.53,71.22,23,76,18.62,81.59c-.63.82-5.5,6.47-9,9.85C5.24,95.63,2.66,98.16,0,100c2.66,1.84,5.24,4.37,9.61,8.56,3.51,3.38,8.38,9,9,9.85C23,124,30.53,128.78,42.27,131.08a31.62,31.62,0,0,1,3.53-10.93C39.45,118.37,35.06,115.73,32.27,112.72Z"/><path class="f9ae93b6-dd1e-457f-99e9-5ecf0e623ca7" d="M112.72,167.73c-.56.52-4.47,4.58-6.8,7.5a70.09,70.09,0,0,0-5.92,8,70.09,70.09,0,0,0-5.92-8c-2.33-2.92-6.24-7-6.8-7.5-3-2.79-5.65-7.18-7.43-13.53a31.62,31.62,0,0,1-10.93,3.53c2.3,11.74,7,19.31,12.67,23.65.82.63,6.47,5.5,9.85,9,4.19,4.37,6.72,7,8.56,9.61,1.84-2.66,4.37-5.24,8.56-9.61,3.38-3.51,9-8.38,9.85-9,5.63-4.34,10.37-11.91,12.67-23.65a31.62,31.62,0,0,1-10.93-3.53C118.37,160.55,115.73,164.94,112.72,167.73Z"/><path class="f9ae93b6-dd1e-457f-99e9-5ecf0e623ca7" d="M190.39,91.44c-3.51-3.38-8.38-9-9-9.85C177,76,169.47,71.22,157.73,68.92a31.62,31.62,0,0,1-3.53,10.93c6.35,1.78,10.74,4.42,13.53,7.43.52.56,4.58,4.47,7.5,6.8a70.09,70.09,0,0,0,8,5.92,70.09,70.09,0,0,0-8,5.92c-2.92,2.33-7,6.24-7.5,6.8-2.79,3-7.18,5.65-13.53,7.43a31.62,31.62,0,0,1,3.53,10.93c11.74-2.3,19.31-7,23.65-12.67.63-.82,5.5-6.47,9-9.85,4.37-4.19,7-6.72,9.61-8.56C197.34,98.16,194.76,95.63,190.39,91.44Z"/><path class="f9ae93b6-dd1e-457f-99e9-5ecf0e623ca7" d="M146.54,131.82v.59h0v-.59a21.49,21.49,0,0,0-2.35-9.82h0A21.49,21.49,0,0,1,146.54,131.82Z"/><path class="f9ae93b6-dd1e-457f-99e9-5ecf0e623ca7" d="M100,63.56a55.55,55.55,0,0,1,3.9,6.92,38.71,38.71,0,0,1,3.24-3.66c5.53-5.46,10.5-9,14.86-11a61.44,61.44,0,0,0-1.85-10,62.29,62.29,0,0,0-14.76,11.14A41.06,41.06,0,0,0,100,63.56Z"/><path class="f9ae93b6-dd1e-457f-99e9-5ecf0e623ca7" d="M140.1,53.06a56.7,56.7,0,0,0,8.05-1.21,56.7,56.7,0,0,0-1.21,8c-.28,2.56-.39,6.21-.4,7.69a79.72,79.72,0,0,1,11.19,1.33,22.23,22.23,0,0,0,0-5.35c-.1-.84-.56-6.92-.48-10.91.11-4.95.13-7.91.61-10.51-2.6.48-5.56.5-10.51.61-4,.08-10.08-.38-10.91-.48a22.23,22.23,0,0,0-5.35,0,79.72,79.72,0,0,1,1.33,11.19C133.89,53.45,137.54,53.34,140.1,53.06Z"/><path class="f9ae93b6-dd1e-457f-99e9-5ecf0e623ca7" d="M133.18,92.86a38.71,38.71,0,0,1-3.66,3.24,55.55,55.55,0,0,1,6.92,3.9,41.06,41.06,0,0,0,6.62-5.39A62.29,62.29,0,0,0,154.2,79.85a61.44,61.44,0,0,0-10-1.85C142.14,82.36,138.64,87.33,133.18,92.86Z"/><path class="f9ae93b6-dd1e-457f-99e9-5ecf0e623ca7" d="M122,55.81a21.49,21.49,0,0,1,9.82-2.35h.59a79.72,79.72,0,0,0-1.33-11.19,31.62,31.62,0,0,0-10.93,3.53A61.44,61.44,0,0,1,122,55.81Z"/><path class="f9ae93b6-dd1e-457f-99e9-5ecf0e623ca7" d="M146.54,68.18A21.49,21.49,0,0,1,144.19,78a61.44,61.44,0,0,1,10,1.85,31.62,31.62,0,0,0,3.53-10.93,79.72,79.72,0,0,0-11.19-1.33Z"/><path class="f9ae93b6-dd1e-457f-99e9-5ecf0e623ca7" d="M63.56,100a55.55,55.55,0,0,1,6.92-3.9h0a38.71,38.71,0,0,1-3.66-3.24c-5.46-5.53-9-10.5-11-14.86a61.44,61.44,0,0,0-10,1.85A62.29,62.29,0,0,0,56.94,94.61,41.06,41.06,0,0,0,63.56,100Z"/><path class="f9ae93b6-dd1e-457f-99e9-5ecf0e623ca7" d="M96.1,70.48a55.55,55.55,0,0,1,3.9-6.92,41.06,41.06,0,0,0-5.39-6.62A62.29,62.29,0,0,0,79.85,45.8a61.44,61.44,0,0,0-1.85,10c4.36,2,9.33,5.55,14.86,11A38.71,38.71,0,0,1,96.1,70.48Z"/><path class="f9ae93b6-dd1e-457f-99e9-5ecf0e623ca7" d="M53.12,60.49c0-.2,0-.4-.07-.59q-.07-.7-.15-1.35c-.09-.85-.18-1.62-.27-2.32a31.89,31.89,0,0,0-.78-4.38l.77.19a72.82,72.82,0,0,0,7.28,1c2.56.28,6.21.39,7.69.4a79.72,79.72,0,0,1,1.33-11.19,22.23,22.23,0,0,0-5.35,0c-.84.1-6.92.56-10.91.48-4.95-.11-7.91-.13-10.51-.61.48,2.6.5,5.56.61,10.51.08,4-.38,10.07-.48,10.91a22.23,22.23,0,0,0,0,5.35,79.72,79.72,0,0,1,11.19-1.33C53.45,66.22,53.36,63,53.12,60.49Z"/><path class="f9ae93b6-dd1e-457f-99e9-5ecf0e623ca7" d="M67.77,53.46h.41A21.49,21.49,0,0,1,78,55.81a61.44,61.44,0,0,1,1.85-10,31.62,31.62,0,0,0-10.93-3.53,79.72,79.72,0,0,0-1.33,11.19Z"/><path class="f9ae93b6-dd1e-457f-99e9-5ecf0e623ca7" d="M55.81,78a21.49,21.49,0,0,1-2.35-9.82v-.59a79.72,79.72,0,0,0-11.19,1.33A31.62,31.62,0,0,0,45.8,79.85,61.44,61.44,0,0,1,55.81,78Z"/><path class="f9ae93b6-dd1e-457f-99e9-5ecf0e623ca7" d="M100,65.66a29.15,29.15,0,0,0,2.44,3.3c.4.5.91,1.08,1.39,1.6l.07-.08a55.55,55.55,0,0,0-3.9-6.92,55.55,55.55,0,0,0-3.9,6.92l.07.08c.48-.52,1-1.1,1.39-1.6A29.15,29.15,0,0,0,100,65.66Z"/><path class="f9ae93b6-dd1e-457f-99e9-5ecf0e623ca7" d="M100,136.44a55.55,55.55,0,0,1-3.9-6.92,38.71,38.71,0,0,1-3.24,3.66c-5.53,5.46-10.5,9-14.86,11a61.44,61.44,0,0,0,1.85,10,62.29,62.29,0,0,0,14.76-11.14A41.06,41.06,0,0,0,100,136.44Z"/><path class="f9ae93b6-dd1e-457f-99e9-5ecf0e623ca7" d="M70.48,103.9a55.55,55.55,0,0,1-6.92-3.9,41.06,41.06,0,0,0-6.62,5.39A62.29,62.29,0,0,0,45.8,120.15a61.44,61.44,0,0,0,10,1.85c2-4.36,5.55-9.33,11-14.86A38.71,38.71,0,0,1,70.48,103.9Z"/><path class="f9ae93b6-dd1e-457f-99e9-5ecf0e623ca7" d="M59.9,146.94a56.7,56.7,0,0,0-8,1.21,55.54,55.54,0,0,0,1.2-8.05c.29-2.56.4-6.21.41-7.69a79.72,79.72,0,0,1-11.19-1.33,22.23,22.23,0,0,0,0,5.35c.1.84.56,6.92.48,10.91-.11,4.95-.13,7.91-.61,10.51,2.6-.48,5.56-.5,10.51-.61,4-.08,10.07.38,10.91.48a22.23,22.23,0,0,0,5.35,0,79.72,79.72,0,0,1-1.33-11.19C66.11,146.55,62.46,146.66,59.9,146.94Z"/><path class="f9ae93b6-dd1e-457f-99e9-5ecf0e623ca7" d="M53.46,131.82A21.49,21.49,0,0,1,55.81,122a61.44,61.44,0,0,1-10-1.85,31.62,31.62,0,0,0-3.53,10.93,79.72,79.72,0,0,0,11.19,1.33Z"/><path class="f9ae93b6-dd1e-457f-99e9-5ecf0e623ca7" d="M78,144.19a21.49,21.49,0,0,1-9.82,2.35h-.59a79.72,79.72,0,0,0,1.33,11.19,31.62,31.62,0,0,0,10.93-3.53A61.44,61.44,0,0,1,78,144.19Z"/><path class="f9ae93b6-dd1e-457f-99e9-5ecf0e623ca7" d="M65.66,100A29.15,29.15,0,0,0,69,97.56c.5-.4,1.08-.91,1.6-1.39l-.08-.07a55.55,55.55,0,0,0-6.92,3.9,55.55,55.55,0,0,0,6.92,3.9l.08-.07c-.52-.48-1.1-1-1.6-1.39A29.15,29.15,0,0,0,65.66,100Z"/><path class="f9ae93b6-dd1e-457f-99e9-5ecf0e623ca7" d="M146.94,140.1a56.7,56.7,0,0,0,1.21,8.05h0a56.7,56.7,0,0,0-8.05-1.21c-2.56-.28-6.21-.39-7.69-.4a79.72,79.72,0,0,1-1.33,11.19,22.23,22.23,0,0,0,5.35,0c.84-.1,6.92-.56,10.91-.48,4.95.11,7.91.13,10.51.61-.48-2.6-.5-5.56-.61-10.51-.08-4,.38-10.07.48-10.91a22.23,22.23,0,0,0,0-5.35,79.72,79.72,0,0,1-11.19,1.33C146.55,133.89,146.66,137.54,146.94,140.1Z"/><path class="f9ae93b6-dd1e-457f-99e9-5ecf0e623ca7" d="M103.9,129.52a55.55,55.55,0,0,1-3.9,6.92,41.06,41.06,0,0,0,5.39,6.62,62.29,62.29,0,0,0,14.76,11.14,61.44,61.44,0,0,0,1.85-10c-4.36-2.05-9.33-5.55-14.86-11A38.71,38.71,0,0,1,103.9,129.52Z"/><path class="f9ae93b6-dd1e-457f-99e9-5ecf0e623ca7" d="M136.44,100a55.55,55.55,0,0,1-6.92,3.9,38.71,38.71,0,0,1,3.66,3.24c5.46,5.53,9,10.5,11,14.86a61.44,61.44,0,0,0,10-1.85,62.29,62.29,0,0,0-11.14-14.76A41.06,41.06,0,0,0,136.44,100Z"/><path class="f9ae93b6-dd1e-457f-99e9-5ecf0e623ca7" d="M132.23,146.54h-.41c-.38,0-.76,0-1.16,0a18.82,18.82,0,0,1-3.81-.57,26.58,26.58,0,0,1-4.85-1.78,61.44,61.44,0,0,1-1.85,10,31.62,31.62,0,0,0,10.93,3.53,79.72,79.72,0,0,0,1.33-11.19Z"/><path class="f9ae93b6-dd1e-457f-99e9-5ecf0e623ca7" d="M144.19,122a21.49,21.49,0,0,1,2.35,9.82v.59a79.72,79.72,0,0,0,11.19-1.33,31.62,31.62,0,0,0-3.53-10.93A61.44,61.44,0,0,1,144.19,122Z"/><path class="f9ae93b6-dd1e-457f-99e9-5ecf0e623ca7" d="M131,97.56a29.15,29.15,0,0,0,3.3,2.44,29.15,29.15,0,0,0-3.3,2.44c-.5.4-1.08.91-1.6,1.39l.08.07a55.55,55.55,0,0,0,6.92-3.9,55.55,55.55,0,0,0-6.92-3.9l-.08.07C130,96.65,130.54,97.16,131,97.56Z"/><path class="f9ae93b6-dd1e-457f-99e9-5ecf0e623ca7" d="M102.44,131a29.15,29.15,0,0,0-2.44,3.3,29.15,29.15,0,0,0-2.44-3.3c-.4-.5-.91-1.08-1.39-1.6l-.07.08a55.55,55.55,0,0,0,3.9,6.92,55.55,55.55,0,0,0,3.9-6.92l-.07-.08C103.35,130,102.84,130.54,102.44,131Z"/><path class="f9ae93b6-dd1e-457f-99e9-5ecf0e623ca7" d="M52.9,58.55c-.09-.85-.18-1.62-.27-2.32C52.72,56.93,52.81,57.7,52.9,58.55Z"/><path class="f9ae93b6-dd1e-457f-99e9-5ecf0e623ca7" d="M68.18,53.46Z"/><path class="f9ae93b6-dd1e-457f-99e9-5ecf0e623ca7" d="M70.56,96.17l-.08-.07h0l.08.07Z"/><path class="f9ae93b6-dd1e-457f-99e9-5ecf0e623ca7" d="M132.23,146.54h0Z"/><path class="f9ae93b6-dd1e-457f-99e9-5ecf0e623ca7" d="M100,117.38s-.89.66-2.48,1.7c.72,1.53,1.55,3.11,2.48,4.7.93-1.59,1.75-3.17,2.48-4.7C100.89,118,100,117.38,100,117.38Z"/><path class="f9ae93b6-dd1e-457f-99e9-5ecf0e623ca7" d="M97.52,80.92c1.59,1,2.48,1.7,2.48,1.7s.89-.66,2.48-1.7c-.73-1.53-1.55-3.11-2.48-4.7a51.67,51.67,0,0,0-3.83-5.66h0A51.67,51.67,0,0,1,100,76.22C99.07,77.81,98.24,79.39,97.52,80.92Z"/><path class="f9ae93b6-dd1e-457f-99e9-5ecf0e623ca7" d="M104.49,114.45A63.42,63.42,0,0,0,107,107l1.53,1.53h0L107,107a63,63,0,0,0,7.49-2.46C113,101.67,112,100,112,100h5.37s.66.89,1.7,2.48c1.53-.72,3.11-1.55,4.7-2.48-1.59-.93-3.17-1.76-4.7-2.48-1,1.59-1.7,2.48-1.7,2.48H112s1-1.67,2.44-4.49a63.42,63.42,0,0,0-7.5-2.46,63.42,63.42,0,0,0-2.46-7.5C101.67,87,100,88,100,88h0s-1.67-1-4.49-2.44a63.42,63.42,0,0,0-2.46,7.5l-1.53-1.53h0l1.53,1.53a63.42,63.42,0,0,0-7.5,2.46C87,98.33,88,100,88,100H82.62s-.66-.89-1.7-2.48c-1.53.72-3.11,1.55-4.7,2.48h0c1.59.93,3.17,1.75,4.7,2.48,1-1.59,1.7-2.48,1.7-2.48H88s-1,1.67-2.44,4.49a63.42,63.42,0,0,0,7.5,2.46,63.42,63.42,0,0,0,2.46,7.5C98.33,113,100,112,100,112S101.67,113,104.49,114.45Z"/><path class="f9ae93b6-dd1e-457f-99e9-5ecf0e623ca7" d="M117.38,100s.66-.89,1.7-2.48c-1.64-.78-3.2-1.45-4.63-2C113,98.33,112,100,112,100Z"/><path class="f9ae93b6-dd1e-457f-99e9-5ecf0e623ca7" d="M82.62,100H88s-1-1.67-2.44-4.49c-1.43.56-3,1.23-4.63,2C82,99.11,82.62,100,82.62,100Z"/><path class="f9ae93b6-dd1e-457f-99e9-5ecf0e623ca7" d="M100,112s-1.67,1-4.49,2.44c.56,1.43,1.23,3,2,4.63,1.59-1,2.48-1.7,2.48-1.7Z"/><path class="f9ae93b6-dd1e-457f-99e9-5ecf0e623ca7" d="M100,88h0V82.62s-.89-.66-2.48-1.7c-.78,1.64-1.45,3.2-2,4.63C98.33,87,100,88,100,88Z"/><path class="f9ae93b6-dd1e-457f-99e9-5ecf0e623ca7" d="M82.62,100s-.66.89-1.7,2.48c1.64.78,3.2,1.45,4.63,2C87,101.67,88,100,88,100Z"/><path class="f9ae93b6-dd1e-457f-99e9-5ecf0e623ca7" d="M112,100s1,1.67,2.43,4.49c1.44-.56,3-1.23,4.64-2-1-1.59-1.7-2.48-1.7-2.48Z"/><path class="f9ae93b6-dd1e-457f-99e9-5ecf0e623ca7" d="M100,117.38s.89.66,2.48,1.7c.78-1.64,1.45-3.2,2-4.63C101.67,113,100,112,100,112Z"/><path class="f9ae93b6-dd1e-457f-99e9-5ecf0e623ca7" d="M104.49,85.55c-.56-1.43-1.23-3-2-4.63-1.59,1-2.48,1.7-2.48,1.7V88S101.67,87,104.49,85.55Z"/><path class="f9ae93b6-dd1e-457f-99e9-5ecf0e623ca7" d="M103.83,70.56c-.48-.52-1-1.1-1.39-1.6a29.15,29.15,0,0,1-2.44-3.3A29.15,29.15,0,0,1,97.56,69c-.4.5-.91,1.08-1.39,1.6A51.67,51.67,0,0,1,100,76.22,51.67,51.67,0,0,1,103.83,70.56Z"/><path class="f9ae93b6-dd1e-457f-99e9-5ecf0e623ca7" d="M76.22,100h0a51.67,51.67,0,0,1-5.66-3.83c-.52.48-1.1,1-1.6,1.39a29.15,29.15,0,0,1-3.3,2.44,29.15,29.15,0,0,1,3.3,2.44c.5.4,1.08.91,1.6,1.39A51.67,51.67,0,0,1,76.22,100Z"/><path class="f9ae93b6-dd1e-457f-99e9-5ecf0e623ca7" d="M114.45,95.51c.66-1.33,1.41-2.92,2.18-4.72-.72,0-1.46-.07-2.25-.07a22.41,22.41,0,0,0-5.9.8,22.41,22.41,0,0,0,.8-5.9c0-.79,0-1.53-.07-2.25-1.8.77-3.39,1.52-4.72,2.18a63.42,63.42,0,0,1,2.46,7.5A63.42,63.42,0,0,1,114.45,95.51Z"/><path class="f9ae93b6-dd1e-457f-99e9-5ecf0e623ca7" d="M123.78,100a51.67,51.67,0,0,0,5.66-3.83c-.74-.67-1.37-1.28-1.5-1.42a11.67,11.67,0,0,0-5.39-3c-1.33,2.4-2.55,4.37-3.47,5.78C120.61,98.24,122.19,99.07,123.78,100Z"/><path class="f9ae93b6-dd1e-457f-99e9-5ecf0e623ca7" d="M102.48,80.92c1.41-.92,3.38-2.14,5.78-3.47a11.67,11.67,0,0,0-3-5.39c-.14-.13-.75-.76-1.42-1.5A51.67,51.67,0,0,0,100,76.22C100.93,77.81,101.75,79.39,102.48,80.92Z"/><path class="f9ae93b6-dd1e-457f-99e9-5ecf0e623ca7" d="M114.45,95.51c1.43.56,3,1.23,4.63,2,.92-1.41,2.14-3.38,3.47-5.78a27.45,27.45,0,0,0-5.92-.95C115.86,92.59,115.11,94.18,114.45,95.51Z"/><path class="f9ae93b6-dd1e-457f-99e9-5ecf0e623ca7" d="M104.49,85.55c1.33-.66,2.92-1.41,4.72-2.18a27.45,27.45,0,0,0-.95-5.92c-2.4,1.33-4.37,2.55-5.78,3.47C103.26,82.56,103.93,84.12,104.49,85.55Z"/><path class="f9ae93b6-dd1e-457f-99e9-5ecf0e623ca7" d="M97.52,119.08c-1.41.92-3.38,2.14-5.78,3.47a11.67,11.67,0,0,0,3,5.39c.14.13.75.76,1.42,1.5a51.67,51.67,0,0,0,3.83-5.66C99.07,122.19,98.24,120.61,97.52,119.08Z"/><path class="f9ae93b6-dd1e-457f-99e9-5ecf0e623ca7" d="M85.55,104.49c-.66,1.33-1.41,2.92-2.18,4.72.72,0,1.46.07,2.25.07a22.41,22.41,0,0,0,5.9-.8,22.41,22.41,0,0,0-.8,5.9c0,.79,0,1.53.07,2.25,1.8-.77,3.39-1.52,4.72-2.18a63.42,63.42,0,0,1-2.46-7.5A63.42,63.42,0,0,1,85.55,104.49Z"/><path class="f9ae93b6-dd1e-457f-99e9-5ecf0e623ca7" d="M76.22,100a51.67,51.67,0,0,0-5.66,3.83c.74.67,1.37,1.28,1.49,1.42a11.76,11.76,0,0,0,5.4,3c1.33-2.4,2.55-4.37,3.47-5.78C79.39,101.75,77.81,100.93,76.22,100Z"/><path class="f9ae93b6-dd1e-457f-99e9-5ecf0e623ca7" d="M95.51,114.45c-1.33.66-2.92,1.41-4.72,2.18a27.45,27.45,0,0,0,.95,5.92c2.4-1.33,4.37-2.55,5.78-3.47C96.74,117.44,96.07,115.88,95.51,114.45Z"/><path class="f9ae93b6-dd1e-457f-99e9-5ecf0e623ca7" d="M85.55,104.49c-1.43-.56-3-1.23-4.63-2-.92,1.41-2.14,3.38-3.47,5.78a27.45,27.45,0,0,0,5.92.95C84.14,107.41,84.89,105.82,85.55,104.49Z"/><path class="f9ae93b6-dd1e-457f-99e9-5ecf0e623ca7" d="M129.44,103.83c.52-.48,1.1-1,1.6-1.39a29.15,29.15,0,0,1,3.3-2.44,29.15,29.15,0,0,1-3.3-2.44c-.5-.4-1.08-.91-1.6-1.39a51.67,51.67,0,0,1-5.66,3.83A51.67,51.67,0,0,1,129.44,103.83Z"/><path class="f9ae93b6-dd1e-457f-99e9-5ecf0e623ca7" d="M100,134.34a29.15,29.15,0,0,1,2.44-3.3c.4-.5.91-1.08,1.39-1.6a51.67,51.67,0,0,1-3.83-5.66,51.67,51.67,0,0,1-3.83,5.66c.48.52,1,1.1,1.39,1.6A29.15,29.15,0,0,1,100,134.34Z"/><path class="f9ae93b6-dd1e-457f-99e9-5ecf0e623ca7" d="M91.52,91.52l1.53,1.53a63.42,63.42,0,0,1,2.46-7.5c-1.33-.66-2.92-1.41-4.72-2.18,0,.72-.07,1.46-.07,2.25A22.41,22.41,0,0,0,91.52,91.52Z"/><path class="f9ae93b6-dd1e-457f-99e9-5ecf0e623ca7" d="M77.45,91.74a11.76,11.76,0,0,0-5.4,3c-.12.14-.75.75-1.49,1.42A51.67,51.67,0,0,0,76.22,100c1.59-.93,3.17-1.76,4.7-2.48C80,96.11,78.78,94.14,77.45,91.74Z"/><path class="f9ae93b6-dd1e-457f-99e9-5ecf0e623ca7" d="M94.75,72.06a11.67,11.67,0,0,0-3,5.39c2.4,1.33,4.37,2.55,5.78,3.47.72-1.53,1.55-3.11,2.48-4.7a51.67,51.67,0,0,0-3.83-5.66C95.5,71.3,94.89,71.93,94.75,72.06Z"/><path class="f9ae93b6-dd1e-457f-99e9-5ecf0e623ca7" d="M83.37,90.79c.77,1.8,1.52,3.39,2.18,4.72a63.42,63.42,0,0,1,7.5-2.46l-1.53-1.53a22.41,22.41,0,0,0-5.9-.8C84.83,90.72,84.09,90.75,83.37,90.79Z"/><path class="f9ae93b6-dd1e-457f-99e9-5ecf0e623ca7" d="M85.55,95.51c-.66-1.33-1.41-2.92-2.18-4.72a27.45,27.45,0,0,0-5.92.95c1.33,2.4,2.55,4.37,3.47,5.78C82.56,96.74,84.12,96.07,85.55,95.51Z"/><path class="f9ae93b6-dd1e-457f-99e9-5ecf0e623ca7" d="M97.52,80.92c-1.41-.92-3.38-2.14-5.78-3.47a27.45,27.45,0,0,0-.95,5.92c1.8.77,3.39,1.52,4.72,2.18C96.07,84.12,96.74,82.56,97.52,80.92Z"/><path class="f9ae93b6-dd1e-457f-99e9-5ecf0e623ca7" d="M70.56,96.17A51.67,51.67,0,0,0,76.22,100h0a51.67,51.67,0,0,1-5.66-3.83Z"/><path class="f9ae93b6-dd1e-457f-99e9-5ecf0e623ca7" d="M108.48,108.48,107,107a63.42,63.42,0,0,1-2.46,7.5c1.33.66,2.92,1.41,4.72,2.18,0-.72.07-1.46.07-2.25A22.41,22.41,0,0,0,108.48,108.48Z"/><path class="f9ae93b6-dd1e-457f-99e9-5ecf0e623ca7" d="M100,123.78a51.67,51.67,0,0,0,3.83,5.66c.67-.74,1.28-1.37,1.42-1.5a11.67,11.67,0,0,0,3-5.39c-2.4-1.33-4.37-2.55-5.78-3.47C101.75,120.61,100.93,122.19,100,123.78Z"/><path class="f9ae93b6-dd1e-457f-99e9-5ecf0e623ca7" d="M119.08,102.48c.92,1.41,2.14,3.38,3.47,5.78a11.67,11.67,0,0,0,5.39-3c.13-.14.76-.75,1.5-1.42a51.67,51.67,0,0,0-5.66-3.83C122.19,100.93,120.61,101.76,119.08,102.48Z"/><path class="f9ae93b6-dd1e-457f-99e9-5ecf0e623ca7" d="M108.48,108.48a22.41,22.41,0,0,0,5.9.8c.79,0,1.53,0,2.25-.07-.77-1.8-1.52-3.39-2.19-4.72A63,63,0,0,1,107,107Z"/><path class="f9ae93b6-dd1e-457f-99e9-5ecf0e623ca7" d="M114.44,104.49c.67,1.33,1.42,2.92,2.19,4.72a27.45,27.45,0,0,0,5.92-.95c-1.33-2.4-2.55-4.37-3.47-5.78C117.44,103.26,115.88,103.93,114.44,104.49Z"/><path class="f9ae93b6-dd1e-457f-99e9-5ecf0e623ca7" d="M102.48,119.08c1.41.92,3.38,2.14,5.78,3.47a27.45,27.45,0,0,0,.95-5.92c-1.8-.77-3.39-1.52-4.72-2.18C103.93,115.88,103.26,117.44,102.48,119.08Z"/></g></svg>