<svg id="eFWXcdhIL2O1" xmlns="http://www.w3.org/2000/svg" xmlns:xlink="http://www.w3.org/1999/xlink" viewBox="0 0 150 150" shape-rendering="geometricPrecision" text-rendering="geometricPrecision"><style><![CDATA[#eFWXcdhIL2O3_tr {animation: eFWXcdhIL2O3_tr__tr 2000ms linear infinite normal forwards}@keyframes eFWXcdhIL2O3_tr__tr { 0% {transform: translate(75px,75px) rotate(0deg)} 100% {transform: translate(75px,75px) rotate(90deg)}} #eFWXcdhIL2O3 {animation: eFWXcdhIL2O3_c_o 2000ms linear infinite normal forwards}@keyframes eFWXcdhIL2O3_c_o { 0% {opacity: 1} 5% {opacity: 1} 35% {opacity: 0.4;animation-timing-function: cubic-bezier(0.306027,0.481793,0.637838,0.822645)} 65% {opacity: 0.4} 100% {opacity: 1}} #eFWXcdhIL2O4_tr {animation: eFWXcdhIL2O4_tr__tr 2000ms linear infinite normal forwards}@keyframes eFWXcdhIL2O4_tr__tr { 0% {transform: translate(75.030003px,75.040003px) rotate(0deg)} 50% {transform: translate(75.030003px,75.040003px) rotate(-180deg)} 100% {transform: translate(75.030003px,75.040003px) rotate(-360deg)}} #eFWXcdhIL2O7_tr {animation: eFWXcdhIL2O7_tr__tr 2000ms linear infinite normal forwards}@keyframes eFWXcdhIL2O7_tr__tr { 0% {transform: translate(74.99px,75.000002px) rotate(0deg)} 20% {transform: translate(74.99px,75.000002px) rotate(90deg)} 50% {transform: translate(74.99px,75.000002px) rotate(180deg)} 80% {transform: translate(74.99px,75.000002px) rotate(270deg)} 100% {transform: translate(74.99px,75.000002px) rotate(360deg)}} #eFWXcdhIL2O7 {animation: eFWXcdhIL2O7_c_o 2000ms linear infinite normal forwards}@keyframes eFWXcdhIL2O7_c_o { 0% {opacity: 1} 45% {opacity: 0.7} 55% {opacity: 0.7} 95% {opacity: 1} 100% {opacity: 1}}]]></style><g><g id="eFWXcdhIL2O3_tr" transform="translate(75,75) rotate(0)"><path id="eFWXcdhIL2O3" d="M142.79,68.58c-2.63-2.53-6.29-6.77-6.76-7.39-4.54-5.88-13.75-10.5-29.63-10.61-2.614158-.005821-5.22173.26231-7.78.8.529464-2.562753.794187-5.173129.79-7.79C99.3,27.71,94.68,18.51,88.8,14c-.62-.48-4.86-4.13-7.39-6.76C79.097417,4.988327,76.954883,2.568366,75,0c-1.959254,2.558378-4.105111,4.96829-6.42,7.21C66,9.84,61.8,13.49,61.18,14c-5.88,4.54-10.5,13.74-10.62,29.62.004159,2.616955.272181,5.226822.8,7.79-2.55827-.53769-5.165842-.805821-7.78-.8-15.88.08-25.09,4.7-29.58,10.58-.48.62-4.13,4.86-6.76,7.39C4.986361,70.893594,2.566577,73.039315,0,75c2.556242,1.961838,4.96597,4.107532,7.21,6.42C9.82,84,13.47,88.19,14,88.81c4.54,5.88,13.75,10.5,29.63,10.61c2.614158.005821,5.22173-.26231,7.78-.8-.527819,2.563178-.795841,5.173045-.8,7.79.12,15.88,4.74,25.08,10.62,29.62.62.48,4.85,4.13,7.39,6.76c2.301099,2.243149,4.433555,4.653024,6.38,7.21c1.959254-2.558378,4.105111-4.96829,6.42-7.21c2.53-2.63,6.77-6.28,7.39-6.76c5.88-4.54,10.5-13.74,10.61-29.62.004187-2.616871-.260536-5.227247-.79-7.79c2.55827.53769,5.165842.805821,7.78.8c15.88-.11,25.09-4.73,29.63-10.61.47-.62,4.13-4.86,6.76-7.39c2.238509-2.314509,4.645068-4.460357,7.2-6.42-2.558378-1.959254-4.96829-4.105111-7.21-6.42ZM58.11,48.86C58.19,35.64,61.38,28,65.45,24.2c.42-.39,3.35-3.43,5.1-5.62c1.620084-1.89244,3.103812-3.897477,4.44-6c1.336188,2.102523,2.819916,4.10756,4.44,6c1.75,2.19,4.68,5.23,5.1,5.62c4.07,3.8,7.26,11.44,7.34,24.66.005337,1.497555-.084846,2.993926-.27,4.48C85.708168,55.480146,80.126175,58.392198,75,62c-5.135816-3.593371-10.724255-6.491827-16.62-8.62-.181822-1.499775-.27199-3.009245-.27-4.52Zm33.76,52.28c-.08,13.22-3.27,20.88-7.34,24.66-.42.39-3.35,3.43-5.1,5.62-1.620084,1.89244-3.103812,3.897477-4.44,6-1.336188-2.102523-2.819916-4.10756-4.44-6-1.75-2.19-4.68-5.23-5.1-5.62-4.07-3.78-7.26-11.44-7.34-24.66-.003689-1.497208.083136-2.99327.26-4.48C64.271317,94.520109,69.863261,91.608129,75,88c5.126175,3.607802,10.708168,6.519854,16.6,8.66.185154,1.486074.275337,2.982445.27,4.48Zm39.55-21.7c-2.19,1.75-5.23,4.68-5.63,5.1-3.77,4.07-11.44,7.26-24.66,7.34-1.494236.005511-2.987291-.084674-4.47-.27C94.522828,85.713736,91.610607,80.128055,88,75h-4c2.804198,4.832847,4.959411,10.014101,6.41,15.41C85.013083,88.962402,79.831444,86.807028,75,84c-4.835097,2.804366-10.020128,4.956389-15.42,6.4C61.034573,85.007058,63.193137,79.829195,66,75h-4c-3.600121,5.129708-6.502216,10.715316-8.63,16.61-1.482709.185326-2.975764.275511-4.47.27-13.27-.08-20.9-3.27-24.71-7.34-.4-.42-3.44-3.35-5.63-5.1-1.89244-1.620084-3.897477-3.103812-6-4.44c2.102523-1.336188,4.10756-2.819916,6-4.44c2.19-1.75,5.23-4.68,5.63-5.1C28,61.39,35.63,58.2,48.85,58.12c1.494236-.005511,2.987291.084674,4.47.27C55.463429,64.287318,58.382401,69.873048,62,75h4c-2.804198-4.832847-4.959411-10.014101-6.41-15.41C64.986917,61.037598,70.168556,63.192972,75,66v0c4.835097-2.804366,10.020128-4.956389,15.42-6.4C88.965427,64.992942,86.806863,70.170805,84,75h4c3.600121-5.129708,6.502216-10.715316,8.63-16.61c1.482709-.185326,2.975764-.275511,4.47-.27c13.22.08,20.89,3.27,24.66,7.34.4.42,3.44,3.35,5.63,5.1c1.89244,1.620084,3.897477,3.103812,6,4.44-2.092212,1.337367-4.087191,2.821071-5.97,4.44Z" transform="translate(-75,-75)" fill="#0f7b3b"/></g><g id="eFWXcdhIL2O4_tr" transform="translate(75.030003,75.040003) rotate(0)"><g transform="translate(-75.030002,-75.040002)"><path d="M118.29,102.32c.78-6-1.88-14-11-23.28-1.525544-1.500753-3.200975-2.841098-5-4c1.799025-1.158902,3.474456-2.499247,5-4c9.12-9.25,11.78-17.25,11-23.28-.08-.63-.42-5.19-.36-8.18-.045451-2.637512.104962-5.274759.45-7.89-2.61156.349212-5.245546.502973-7.88.46-3,.06-7.56-.28-8.19-.36-6-.78-14,1.87-23.28,11-1.502724,1.523793-2.843239,3.199437-4,5-1.156761-1.800563-2.497276-3.476207-4-5-9.26-9.12-17.25-11.77-23.28-11-.63.08-5.2.42-8.19.36-2.634454.042973-5.26844-.110788-7.88-.46.339934,2.61572.490326,5.252592.45,7.89.06,3-.28,7.55-.36,8.18-.78,6,1.88,14,11,23.28c1.525544,1.500753,3.200975,2.841098,5,4-1.799025,1.158902-3.474456,2.499247-5,4-9.12,9.25-11.78,17.25-11,23.28.08.63.42,5.19.36,8.18.040326,2.637408-.110066,5.27428-.45,7.89c2.61156-.349212,5.245546-.502973,7.88-.46c3-.06,7.56.28,8.19.36c6,.78,14-1.87,23.28-11c1.502724-1.523793,2.843239-3.199437,4-5c1.156761,1.800563,2.497276,3.476207,4,5c9.26,9.12,17.25,11.77,23.28,11c.63-.08,5.2-.42,8.19-.36c2.634454-.042973,5.26844.110788,7.88.46-.345038-2.615241-.495451-5.252488-.45-7.89-.06-2.99.28-7.5.36-8.18Zm-13.22,7.89c-2.28-.26-5.74-.32-6.21-.3-4.54.16-10.82-2.43-18.51-10-.873508-.857916-1.68866-1.773292-2.44-2.74-1.068433-1.378183-2.040731-2.828277-2.91-4.34-.873661,1.501729-1.849284,2.941774-2.92,4.31-.754208.964317-1.569198,1.879511-2.44,2.74-7.69,7.6-14,10.19-18.51,10-.47,0-3.93,0-6.21.3-2.018696.158354-4.023686.459102-6,.9.446729-1.975608.750846-3.980777.91-6c.25-2.28.32-5.73.3-6.2-.17-4.54,2.42-10.82,10-18.51.862489-.868692,1.777547-1.683561,2.74-2.44c1.358268-1.073007,2.788265-2.051954,4.28-2.93-1.501729-.873661-2.941774-1.849284-4.31-2.92-.962453-.756439-1.877511-1.571308-2.74-2.44-7.6-7.69-10.19-14-10-18.51c0-.47,0-3.92-.3-6.2-.159154-2.019223-.463271-4.024392-.91-6c1.976314.440898,3.981304.741646,6,.9c2.28.26,5.74.32,6.21.3c4.54-.16,10.82,2.43,18.51,10c.870802.860489,1.685792,1.775683,2.44,2.74c1.080636,1.364093,2.066289,2.800808,2.95,4.3.873661-1.501729,1.849284-2.941774,2.92-4.31.75134-.966708,1.566492-1.882084,2.44-2.74c7.69-7.6,14-10.19,18.51-10c.47,0,3.93,0,6.21-.3c2.018696-.158354,4.023686-.459102,6-.9-.446729,1.975608-.750846,3.980777-.91,6-.25,2.28-.32,5.73-.3,6.2.17,4.54-2.42,10.82-10,18.51-.863634.87121-1.782181,1.686211-2.75,2.44-1.362953,1.071388-2.796164,2.050247-4.29,2.93c1.496974.87615,2.933528,1.851671,4.3,2.92.967819.753789,1.886366,1.56879,2.75,2.44c7.6,7.69,10.19,14,10,18.51c0,.47,0,3.92.3,6.2.159154,2.019223.463271,4.024392.91,6-1.983856-.428378-3.995552-.715763-6.02-.86Z" fill="#0f7b3b"/><path d="M109.9,98.87c.17-4.54-2.42-10.82-10-18.51-.863634-.87121-1.782181-1.686211-2.75-2.44-1.372912-1.069077-2.816169-2.044612-4.32-2.92c1.496974-.87615,2.933528-1.851671,4.3-2.92.967819-.753789,1.886366-1.56879,2.75-2.44c7.6-7.69,10.19-14,10-18.51c0-.47,0-3.92.3-6.2.159154-2.019223.463271-4.024392.91-6-1.976314.440898-3.981304.741646-6,.9-2.28.26-5.74.32-6.21.3-4.54-.16-10.82,2.43-18.51,10-.873508.857916-1.68866,1.773292-2.44,2.74-1.017947,1.297726-1.949936,2.660634-2.79,4.08h-.26c-.843538-1.417151-1.775378-2.779841-2.79-4.08-.754208-.964317-1.569198-1.879511-2.44-2.74-7.69-7.6-14-10.19-18.51-10-.47,0-3.93,0-6.21-.3-2.018696-.158354-4.023686-.459102-6-.9.446729,1.975608.750846,3.980777.91,6c.25,2.28.32,5.73.3,6.2-.17,4.54,2.42,10.82,10,18.51.862489.868692,1.777547,1.683561,2.74,2.44c1.303574,1.014716,2.669596,1.946551,4.09,2.79v.26c-1.420404.843449-2.786426,1.775284-4.09,2.79-.962453.756439-1.877511,1.571308-2.74,2.44-7.6,7.69-10.19,14-10,18.51c0,.47,0,3.92-.3,6.2-.159154,2.019223-.463271,4.024392-.91,6c1.976314-.440898,3.981304-.741646,6-.9c2.28-.26,5.74-.32,6.21-.3c4.54.16,10.82-2.43,18.51-10c.870802-.860489,1.685792-1.775683,2.44-2.74c1.066902-1.365312,2.039171-2.801998,2.91-4.3.873661,1.501729,1.849284,2.941774,2.92,4.31.75134.966708,1.566492,1.882084,2.44,2.74c7.69,7.6,14,10.19,18.51,10c.47,0,3.93,0,6.21.3c2.018696.158354,4.023686.459102,6,.9-.446729-1.975608-.750846-3.980777-.91-6-.17-2.29-.29-5.74-.27-6.21Z" fill="#fff"/></g></g><g id="eFWXcdhIL2O7_tr" transform="translate(74.99,75.000002) rotate(0)"><path id="eFWXcdhIL2O7" d="M76.82,98.28c.72-.9,1.93-2.16,2.11-2.32c1.68-1.56,3-4.72,3-10.18-.008764-1.493028-.210434-2.978664-.6-4.42c1.444614.3902,2.933638.591874,4.43.6c5.45,0,8.61-1.35,10.17-3c.16-.18,1.42-1.39,2.32-2.11.785811-.678426,1.621497-1.296834,2.5-1.85-.870952-.547586-1.699911-1.159277-2.48-1.83-.9-.72-2.16-1.93-2.32-2.11-1.56-1.67-4.72-3-10.17-3-1.496362.008126-2.985386.2098-4.43.6.389566-1.441336.591236-2.926972.6-4.42c0-5.46-1.34-8.62-3-10.18-.18-.16-1.39-1.42-2.11-2.32-.67498-.786154-1.290039-1.621832-1.84-2.5-.551028.868599-1.16254,1.697316-1.83,2.48-.72.9-1.93,2.16-2.11,2.32-1.68,1.56-3,4.72-3,10.18.012136,1.493455.217167,2.979085.61,4.42-1.455758-.407147-2.958482-.622302-4.47-.64-5.45,0-8.61,1.35-10.17,3-.16.18-1.42,1.39-2.32,2.11-.778023.691395-1.607036,1.323184-2.48,1.89.870952.547586,1.699911,1.159277,2.48,1.83.9.72,2.16,1.93,2.32,2.11c1.56,1.67,4.72,3,10.17,3c1.496362-.008126,2.985386-.2098,4.43-.6-.4013,1.446491-.613071,2.938969-.63,4.44c0,5.46,1.35,8.62,3,10.18.18.16,1.39,1.42,2.11,2.32.688098.780732,1.319697,1.609497,1.89,2.48.544379-.870621,1.152722-1.699571,1.82-2.48Z" transform="translate(-74.99,-75.000002)" fill="#0f7b3b"/></g></g></svg>